HIERARCHY
ROOT Hips
{
	OFFSET -10.056300 7.733760 -472.550000
	CHANNELS 6 Xposition Yposition Zposition Zrotation Yrotation Xrotation 
	JOINT Spine
	{
		OFFSET 0.000000 0.000000 0.000000
		CHANNELS 3 Zrotation Yrotation Xrotation
		JOINT Spine1
		{
			OFFSET 19.000000 0.000000 0.000000
			CHANNELS 3 Zrotation Yrotation Xrotation
			JOINT Neck
			{
				OFFSET 22.500000 0.600000 0.000000
				CHANNELS 3 Zrotation Yrotation Xrotation
				JOINT Head
				{
					OFFSET 14.000000 0.030878 0.000000
					CHANNELS 3 Zrotation Yrotation Xrotation
					End Site
					{
						OFFSET 17.000000 0.000000 0.000000
					}
				}
			}
			JOINT LeftShoulder
			{
				OFFSET 19.800000 3.700000 4.300000
				CHANNELS 3 Zrotation Yrotation Xrotation
				JOINT LeftArm
				{
					OFFSET 8.000000 0.000000 0.000000
					CHANNELS 3 Zrotation Yrotation Xrotation
					JOINT LeftForeArm
					{
						OFFSET 15.200000 0.000000 0.000000
						CHANNELS 3 Zrotation Yrotation Xrotation
						JOINT LeftHand
						{
							OFFSET 17.800000 0.000000 0.000000
							CHANNELS 3 Zrotation Yrotation Xrotation
							End Site
							{
								OFFSET 7.200000 0.000000 0.000000
							}
						}
					}
				}
			}
			JOINT RightShoulder
			{
				OFFSET 19.800000 3.700000 -4.300000
				CHANNELS 3 Zrotation Yrotation Xrotation
				JOINT RightArm
				{
					OFFSET 8.000000 0.000000 0.151654
					CHANNELS 3 Zrotation Yrotation Xrotation
					JOINT RightForeArm
					{
						OFFSET 15.200000 0.000000 0.000000
						CHANNELS 3 Zrotation Yrotation Xrotation
						JOINT RightHand
						{
							OFFSET 17.800000 0.000000 0.000000
							CHANNELS 3 Zrotation Yrotation Xrotation
							End Site
							{
								OFFSET 7.200000 0.000000 0.000000
							}
						}
					}
				}
			}
		}
	}
	JOINT LeftUpLeg
	{
		OFFSET 5.984250 -7.666000 4.788790
		CHANNELS 3 Zrotation Yrotation Xrotation
		JOINT LeftLeg
		{
			OFFSET 16.000000 0.000000 0.000000
			CHANNELS 3 Zrotation Yrotation Xrotation
			JOINT LeftFoot
			{
				OFFSET 18.000000 0.000000 0.000000
				CHANNELS 3 Zrotation Yrotation Xrotation
				End Site
				{
					OFFSET 0.000000 -10.800000 0.000000
				}
			}
		}
	}
	JOINT RightUpLeg
	{
		OFFSET 5.984250 -7.665980 -4.788790
		CHANNELS 3 Zrotation Yrotation Xrotation
		JOINT RightLeg
		{
			OFFSET 16.000000 0.000000 0.000000
			CHANNELS 3 Zrotation Yrotation Xrotation
			JOINT RightFoot
			{
				OFFSET 18.000000 0.000000 0.000000
				CHANNELS 3 Zrotation Yrotation Xrotation
				End Site
				{
					OFFSET 0.000000 -10.800000 0.000000
				}
			}
		}
	}
	JOINT Tail
	{
		OFFSET 6.836960 -0.722574 0.000000
		CHANNELS 3 Zrotation Yrotation Xrotation
		JOINT Tail1
		{
			OFFSET 12.000000 0.000000 0.000000
			CHANNELS 3 Zrotation Yrotation Xrotation
			End Site
			{
				OFFSET 12.000000 0.000000 0.000000
			}
		}
	}
}
MOTION
Frames: 11
Frame Time: 0.033333
34161.847656 10493.141602 -11841.226562 31.584795 9.343220 20.256102 -163.583954 -9.433270 -4.120575 44.085632 -56.221775 -43.465096 -23.408476 -12.069415 16.124601 37.240528 -24.085390 -151.916977 -169.471832 86.172028 -146.565521 158.978378 35.020206 -111.552116 -53.015541 -35.095356 127.662018 -159.695724 -15.217482 5.262422 -125.673782 -9.375104 -93.074478 -175.991287 -24.923948 165.509140 132.477600 -45.440475 -42.221596 44.772552 -41.546112 -23.369310 -140.525055 -27.666651 8.456150 13.052247 42.549377 53.969292 -36.097862 -49.047913 23.943993 31.312935 45.069920 -93.947693 -44.278831 40.640987 -8.744319 -155.487808 -4.566707 0.514518 51.173782 24.906130 -18.138746 -31.823971 -22.231344 -131.967514 
52470.511719 -2143.693359 -26454.560547 29.669504 10.989115 18.083656 -161.309586 -11.200095 -5.141215 41.261360 -55.586639 -43.337776 -21.569324 -12.177328 16.252382 37.204708 -26.506124 -150.710327 -167.399765 86.914528 -147.551590 120.966469 43.272953 -128.853653 -34.947296 -39.963551 124.300041 -164.426407 -15.342163 13.978539 -126.866943 -8.027006 -90.946548 -164.841629 -24.024611 156.750046 158.029617 -70.607697 -12.454326 -24.023592 -48.677967 1.457695 -135.285797 -18.678516 8.842175 7.509342 37.600723 49.568886 -45.796261 -51.279655 28.987598 45.021618 38.864594 -81.162010 -46.007244 39.830948 -9.436932 -154.183762 -4.912846 1.119157 75.510780 36.449612 -11.366013 -23.202295 -15.048880 -144.294220 
39236.617188 6880.670898 -47128.484375 27.111040 11.722625 16.209200 -159.363037 -13.171696 -6.022004 37.653439 -53.959751 -41.941227 -19.071138 -13.173738 17.891195 35.579964 -27.956707 -147.831070 136.303299 89.714684 155.397690 75.236534 40.472733 -156.829041 -19.852785 -40.394062 119.774658 -169.176666 -14.628489 25.603947 -126.886848 -7.106378 -92.378838 -148.727310 -23.345531 151.655945 126.171005 -64.023018 57.561852 -74.564369 -39.135998 19.320238 -127.898949 -11.190909 10.032352 4.813515 31.785534 47.810135 -51.974064 -54.884220 34.239902 46.492462 32.003975 -79.251991 -44.052845 41.856735 -8.987417 -153.212677 -5.605199 2.282831 -162.055374 22.665154 44.718460 -18.216722 -8.647229 -148.689789 
4397.285156 14022.800781 -67913.195312 25.151129 13.393173 14.351706 -158.298248 -15.166071 -6.597756 34.341450 -51.488598 -39.867172 -16.624638 -15.214186 20.026678 33.330456 -28.149982 -144.143143 12.469859 84.104118 33.432987 43.063496 27.079384 -176.072998 -11.687599 -37.478504 117.243782 -172.407104 -13.241678 34.842861 -126.565613 -6.797477 -97.805367 -129.642502 -22.123264 148.772522 130.841385 -45.187748 77.106316 -96.252625 -32.573139 25.026854 -121.352386 -7.239039 12.122464 3.675531 27.001368 47.553890 -57.060814 -57.671074 39.235111 40.662182 23.844748 -85.627365 -35.659813 48.392426 -4.817692 -152.493561 -6.514363 3.971820 -99.635834 -12.262573 32.054703 -14.836210 -3.846196 -147.276886 
-24960.917969 13792.342773 -81957.312500 23.848066 15.390835 11.735846 -158.579819 -16.893335 -6.564820 31.560148 -48.730694 -37.301765 -15.305345 -18.352016 21.906111 31.315166 -28.434916 -141.077637 5.688186 73.845085 31.633989 20.000366 9.559562 172.469696 -10.208111 -34.034920 115.081116 -172.354797 -12.299425 38.031666 -127.637299 -5.638054 -106.023056 -110.979744 -20.337219 148.508453 142.964706 -30.417295 81.257301 -105.075935 -32.153526 30.241323 -116.234009 -6.950890 13.465452 3.816421 24.440359 48.446819 -57.533768 -58.831543 40.764542 32.254593 10.300227 -99.811745 -3.157530 58.409492 18.187918 -152.755173 -7.771197 6.464761 -91.992073 -11.453252 28.125481 -12.442149 -1.060519 -141.975983 
-30484.718750 9350.867188 -90785.171875 22.952061 17.478611 8.822294 -160.248489 -18.089392 -5.708711 29.430187 -45.959999 -34.368702 -15.481412 -22.581545 23.253157 29.386379 -28.480528 -138.921249 -6.752922 57.280109 31.264322 1.104654 -10.033820 165.700195 -10.262139 -32.593960 109.345230 -169.744156 -11.614621 38.966885 -131.685715 -4.165521 -116.288719 -95.687943 -19.493792 149.483841 155.196442 -22.347116 78.289879 -108.553131 -35.793343 36.638828 -111.853004 -9.015651 13.019432 5.420090 24.197891 50.591621 -49.508549 -58.426609 36.225475 28.206959 -18.038912 -125.067467 57.961216 46.188122 63.969002 -154.300766 -9.750384 9.919463 -99.801636 -5.757264 32.697151 -11.258274 -0.409051 -134.708801 
-27695.095703 -7717.781250 -98150.195312 22.506956 19.448256 8.067856 -163.062622 -18.485907 -3.902475 28.218321 -42.917782 -31.142250 -17.486029 -26.728243 24.619122 28.415632 -28.574663 -137.834900 -22.520884 32.420670 39.301533 -14.018984 -28.229361 162.912537 -1.556616 -35.052116 91.539497 -166.698318 -9.908036 43.945629 -138.908539 -3.312467 -130.386505 -83.423485 -20.660070 149.309937 168.536118 -14.449302 70.965233 -109.972549 -42.163048 44.758430 -108.512634 -11.993260 11.397205 10.719448 26.402729 55.675049 -30.591808 -59.608669 26.464664 60.727448 -54.402199 170.181946 80.946609 17.235342 72.010216 -157.238647 -11.581507 13.076365 -113.632370 -0.046003 39.770405 -12.481299 -1.376551 -125.816910 
-36253.757812 -5346.838867 -107494.312500 20.688433 20.429520 11.513855 -166.539871 -17.781067 -1.283656 28.190462 -39.524483 -27.697742 -20.799633 -30.718077 26.864105 28.622309 -29.243217 -136.947830 -43.309853 7.310436 60.204971 -25.171984 -41.347988 161.504089 33.398666 -27.590557 41.236156 -164.761139 -5.877338 63.507641 -149.102768 -4.330400 -151.176971 -72.113731 -24.390890 146.731079 -179.921646 -2.182072 64.301987 -111.560532 -49.109879 53.707672 -106.278770 -14.798038 9.523437 21.300446 29.218519 65.853661 0.852608 -62.272545 9.964371 116.141006 -38.133659 86.331322 77.606834 4.914087 67.528572 -160.542404 -12.366660 14.286618 -134.118317 2.701564 49.662651 -18.307074 -3.044828 -114.642632 
-50790.906250 -9671.239258 -117479.593750 17.324028 22.123577 18.456512 -169.766495 -16.095753 1.696694 29.242678 -36.312428 -24.224216 -23.606609 -34.872036 30.014196 29.128460 -28.594254 -134.843506 -68.188919 -1.872954 89.642082 -30.281086 -48.061794 158.399734 45.343460 53.428444 -34.142914 -162.330139 -1.040303 96.317482 -157.655914 -10.808654 -177.070007 -59.823460 -29.960989 140.316086 -174.603317 12.026974 57.253342 -113.772636 -55.930130 62.507496 -105.883545 -17.061132 7.179105 37.243271 29.328465 81.923882 37.805557 -62.091991 -10.517429 124.637314 -20.793310 59.146729 53.450054 9.110014 59.399311 -163.257843 -12.554743 14.205215 -161.333191 5.535515 60.338989 -29.385498 -4.054609 -102.317513 
-58327.289062 -22007.542969 -127453.812500 13.600924 25.180986 25.429007 -171.755798 -13.850118 4.537709 30.300035 -33.809868 -20.725485 -24.984022 -38.605778 33.280579 30.135344 -26.655012 -132.574783 -83.398048 3.290899 115.089798 -30.889330 -49.640312 153.696884 -66.768799 40.473072 -171.724533 -158.754440 -0.393793 125.141846 -157.929504 -20.320379 158.887253 -45.413025 -34.735020 129.343933 -178.000183 24.299477 39.489674 -113.054024 -66.160713 70.310844 -107.673996 -19.834541 3.964079 55.712326 22.972853 100.711960 69.612183 -58.177071 -26.991596 130.844849 -16.641548 43.472374 20.463453 15.162408 45.520611 -165.632553 -12.707587 13.924026 171.660492 12.464985 65.503189 -41.846008 -3.974903 -91.925613 
-64109.164062 -35551.632812 -135468.328125 11.310738 29.388144 30.207008 -172.219040 -11.407013 7.072164 30.870699 -32.474503 -17.350889 -24.711222 -42.049656 35.635395 31.502190 -24.741343 -130.784576 -84.435944 12.741617 131.144958 -30.663097 -47.947124 149.506622 -76.872467 12.569496 175.541870 -157.144119 -3.652846 144.995789 -149.014236 -26.288651 140.870239 -29.784132 -36.934090 115.469490 164.589127 23.560390 -4.988831 -83.109314 -83.419647 52.019848 -111.429985 -23.524069 -0.168406 70.938156 10.103407 115.895996 87.999870 -52.612904 -33.261795 143.476028 -19.451866 30.241488 -3.730936 13.437564 33.504997 -168.461166 -12.890013 14.188001 147.319580 19.651510 61.680443 -49.626972 -4.954192 -87.536072 
